<svg id="visual" viewBox="0 0 1920 1080" width="1920" height="1080" xmlns="http://www.w3.org/2000/svg" xmlns:xlink="http://www.w3.org/1999/xlink" version="1.1"><rect x="0" y="0" width="1920" height="1080" fill="#001122"></rect><path d="M0 907L32 891.5C64 876 128 845 192 827C256 809 320 804 384 807.7C448 811.3 512 823.7 576 834.5C640 845.3 704 854.7 768 847.2C832 839.7 896 815.3 960 821.7C1024 828 1088 865 1152 873.2C1216 881.3 1280 860.7 1344 849.2C1408 837.7 1472 835.3 1536 825.2C1600 815 1664 797 1728 792.7C1792 788.3 1856 797.7 1888 802.3L1920 807L1920 1081L1888 1081C1856 1081 1792 1081 1728 1081C1664 1081 1600 1081 1536 1081C1472 1081 1408 1081 1344 1081C1280 1081 1216 1081 1152 1081C1088 1081 1024 1081 960 1081C896 1081 832 1081 768 1081C704 1081 640 1081 576 1081C512 1081 448 1081 384 1081C320 1081 256 1081 192 1081C128 1081 64 1081 32 1081L0 1081Z" fill="#fa7268"></path><path d="M0 892L32 880.8C64 869.7 128 847.3 192 849C256 850.7 320 876.3 384 893C448 909.7 512 917.3 576 912.3C640 907.3 704 889.7 768 882.7C832 875.7 896 879.3 960 881.7C1024 884 1088 885 1152 872.3C1216 859.7 1280 833.3 1344 825.5C1408 817.7 1472 828.3 1536 845.2C1600 862 1664 885 1728 891.8C1792 898.7 1856 889.3 1888 884.7L1920 880L1920 1081L1888 1081C1856 1081 1792 1081 1728 1081C1664 1081 1600 1081 1536 1081C1472 1081 1408 1081 1344 1081C1280 1081 1216 1081 1152 1081C1088 1081 1024 1081 960 1081C896 1081 832 1081 768 1081C704 1081 640 1081 576 1081C512 1081 448 1081 384 1081C320 1081 256 1081 192 1081C128 1081 64 1081 32 1081L0 1081Z" fill="#f46767"></path><path d="M0 843L32 850.8C64 858.7 128 874.3 192 886.2C256 898 320 906 384 899.8C448 893.7 512 873.3 576 870.8C640 868.3 704 883.7 768 885.2C832 886.7 896 874.3 960 865.2C1024 856 1088 850 1152 862.8C1216 875.7 1280 907.3 1344 922.2C1408 937 1472 935 1536 935.5C1600 936 1664 939 1728 936.7C1792 934.3 1856 926.7 1888 922.8L1920 919L1920 1081L1888 1081C1856 1081 1792 1081 1728 1081C1664 1081 1600 1081 1536 1081C1472 1081 1408 1081 1344 1081C1280 1081 1216 1081 1152 1081C1088 1081 1024 1081 960 1081C896 1081 832 1081 768 1081C704 1081 640 1081 576 1081C512 1081 448 1081 384 1081C320 1081 256 1081 192 1081C128 1081 64 1081 32 1081L0 1081Z" fill="#ee5c67"></path><path d="M0 975L32 968.5C64 962 128 949 192 936.5C256 924 320 912 384 909.2C448 906.3 512 912.7 576 922.2C640 931.7 704 944.3 768 946.2C832 948 896 939 960 926.7C1024 914.3 1088 898.7 1152 893C1216 887.3 1280 891.7 1344 898.2C1408 904.7 1472 913.3 1536 927.3C1600 941.3 1664 960.7 1728 967.7C1792 974.7 1856 969.3 1888 966.7L1920 964L1920 1081L1888 1081C1856 1081 1792 1081 1728 1081C1664 1081 1600 1081 1536 1081C1472 1081 1408 1081 1344 1081C1280 1081 1216 1081 1152 1081C1088 1081 1024 1081 960 1081C896 1081 832 1081 768 1081C704 1081 640 1081 576 1081C512 1081 448 1081 384 1081C320 1081 256 1081 192 1081C128 1081 64 1081 32 1081L0 1081Z" fill="#e75167"></path><path d="M0 921L32 929.5C64 938 128 955 192 953.5C256 952 320 932 384 934.3C448 936.7 512 961.3 576 963.8C640 966.3 704 946.7 768 949C832 951.3 896 975.7 960 984.8C1024 994 1088 988 1152 985.5C1216 983 1280 984 1344 978.3C1408 972.7 1472 960.3 1536 962.7C1600 965 1664 982 1728 983.3C1792 984.7 1856 970.3 1888 963.2L1920 956L1920 1081L1888 1081C1856 1081 1792 1081 1728 1081C1664 1081 1600 1081 1536 1081C1472 1081 1408 1081 1344 1081C1280 1081 1216 1081 1152 1081C1088 1081 1024 1081 960 1081C896 1081 832 1081 768 1081C704 1081 640 1081 576 1081C512 1081 448 1081 384 1081C320 1081 256 1081 192 1081C128 1081 64 1081 32 1081L0 1081Z" fill="#df4667"></path><path d="M0 983L32 981.2C64 979.3 128 975.7 192 974C256 972.3 320 972.7 384 972.2C448 971.7 512 970.3 576 966.3C640 962.3 704 955.7 768 957.7C832 959.7 896 970.3 960 973.8C1024 977.3 1088 973.7 1152 976.8C1216 980 1280 990 1344 987.2C1408 984.3 1472 968.7 1536 961C1600 953.3 1664 953.7 1728 952.8C1792 952 1856 950 1888 949L1920 948L1920 1081L1888 1081C1856 1081 1792 1081 1728 1081C1664 1081 1600 1081 1536 1081C1472 1081 1408 1081 1344 1081C1280 1081 1216 1081 1152 1081C1088 1081 1024 1081 960 1081C896 1081 832 1081 768 1081C704 1081 640 1081 576 1081C512 1081 448 1081 384 1081C320 1081 256 1081 192 1081C128 1081 64 1081 32 1081L0 1081Z" fill="#d73b67"></path><path d="M0 1032L32 1033.8C64 1035.7 128 1039.3 192 1040.2C256 1041 320 1039 384 1035.7C448 1032.3 512 1027.7 576 1025.7C640 1023.7 704 1024.3 768 1019.8C832 1015.3 896 1005.7 960 999.3C1024 993 1088 990 1152 995.5C1216 1001 1280 1015 1344 1016.3C1408 1017.7 1472 1006.3 1536 1001.7C1600 997 1664 999 1728 1000.8C1792 1002.7 1856 1004.3 1888 1005.2L1920 1006L1920 1081L1888 1081C1856 1081 1792 1081 1728 1081C1664 1081 1600 1081 1536 1081C1472 1081 1408 1081 1344 1081C1280 1081 1216 1081 1152 1081C1088 1081 1024 1081 960 1081C896 1081 832 1081 768 1081C704 1081 640 1081 576 1081C512 1081 448 1081 384 1081C320 1081 256 1081 192 1081C128 1081 64 1081 32 1081L0 1081Z" fill="#cf3068"></path><path d="M0 1055L32 1051C64 1047 128 1039 192 1039.2C256 1039.3 320 1047.7 384 1054.2C448 1060.7 512 1065.3 576 1060.8C640 1056.3 704 1042.7 768 1041.5C832 1040.3 896 1051.7 960 1051.8C1024 1052 1088 1041 1152 1036.7C1216 1032.3 1280 1034.7 1344 1033.8C1408 1033 1472 1029 1536 1027.2C1600 1025.3 1664 1025.7 1728 1030C1792 1034.3 1856 1042.7 1888 1046.8L1920 1051L1920 1081L1888 1081C1856 1081 1792 1081 1728 1081C1664 1081 1600 1081 1536 1081C1472 1081 1408 1081 1344 1081C1280 1081 1216 1081 1152 1081C1088 1081 1024 1081 960 1081C896 1081 832 1081 768 1081C704 1081 640 1081 576 1081C512 1081 448 1081 384 1081C320 1081 256 1081 192 1081C128 1081 64 1081 32 1081L0 1081Z" fill="#c62368"></path></svg>